<svg width="579" height="478" viewBox="0 0 579 478" fill="none" xmlns="http://www.w3.org/2000/svg">
<g filter="url(#filter0_dd_57_225)">
<path d="M120.192 75V66.432H113.544V69.096H117.072C117.072 71.088 115.368 72.744 113.184 72.744C110.088 72.744 108.768 69.768 108.768 67.152C108.768 63.36 110.544 61.296 113.208 61.296C115.032 61.296 116.64 62.496 116.808 63.984H120.168C119.928 60.792 117 58.536 113.208 58.536C108.048 58.536 105.36 62.304 105.36 67.008C105.36 71.448 108.168 75.552 112.584 75.552C114.768 75.552 116.592 74.76 117.36 73.416L117.432 75H120.192ZM127.637 72.696C126.077 72.696 125.309 72.096 125.309 70.056C125.309 67.272 126.461 65.52 128.909 65.52C130.445 65.52 131.237 66 131.237 68.136C131.237 70.92 130.061 72.696 127.637 72.696ZM127.181 75.312C131.405 75.312 134.405 72.24 134.405 67.92C134.405 64.872 132.557 62.88 129.365 62.88C125.069 62.88 122.069 65.952 122.069 70.248C122.069 73.248 123.869 75.312 127.181 75.312ZM140.574 72.696C139.014 72.696 138.246 72.096 138.246 70.056C138.246 67.272 139.398 65.52 141.846 65.52C143.382 65.52 144.174 66 144.174 68.136C144.174 70.92 142.998 72.696 140.574 72.696ZM140.118 75.312C144.342 75.312 147.342 72.24 147.342 67.92C147.342 64.872 145.494 62.88 142.302 62.88C138.006 62.88 135.006 65.952 135.006 70.248C135.006 73.248 136.806 75.312 140.118 75.312ZM157.4 66.768C157.232 64.224 155.696 62.88 152.288 62.88C148.688 62.88 147.32 64.392 147.32 66.384C147.32 67.44 147.704 68.352 148.808 69.048C149.648 69.576 150.752 69.912 152.744 70.392C153.752 70.632 154.64 70.896 154.64 71.736C154.64 72.624 153.656 72.96 152.552 72.96C151.04 72.96 150.104 72.312 150.104 71.208H146.888C146.936 73.608 148.952 75.312 152.576 75.312C155.936 75.312 157.736 73.848 157.736 71.4C157.736 69.864 157.04 69.048 155.792 68.544C154.88 68.184 153.608 67.92 152.264 67.536C150.992 67.176 150.344 66.888 150.344 66.192C150.344 65.496 151.016 65.208 152.192 65.208C153.608 65.208 154.232 65.616 154.4 66.768H157.4ZM161.568 67.944C161.688 66.312 162.72 65.352 163.968 65.352C165.192 65.352 166.344 66.192 166.392 67.944H161.568ZM169.608 69.912C169.608 65.232 167.688 62.88 164.064 62.88C160.44 62.88 158.352 65.232 158.352 68.88C158.352 73.152 160.32 75.312 164.256 75.312C166.776 75.312 168.72 73.944 169.44 71.52H166.224C166.008 72.336 165.12 72.84 164.112 72.84C162.576 72.84 161.568 71.688 161.472 69.912H169.608ZM178.295 75V61.848H183.119V59.064H170.159V61.848H174.959V75H178.295ZM185.853 75V68.856C185.853 66.96 186.789 66 188.709 66C188.997 66 189.285 66.024 189.573 66.072V62.88H189.165C187.893 62.88 186.693 63.024 185.661 64.608V63.192H182.733V75H185.853ZM197.01 70.512C196.986 71.904 195.786 73.08 194.178 73.08C193.194 73.08 192.666 72.648 192.666 71.76C192.666 70.752 193.242 70.248 195.018 69.912C196.17 69.696 196.722 69.528 197.034 69.216L197.01 70.512ZM200.154 75V67.536C200.154 64.56 198.858 62.88 195.114 62.88C191.322 62.88 189.978 64.584 189.93 67.032H192.834C192.978 65.976 193.554 65.28 194.97 65.28C196.194 65.28 196.962 65.736 196.962 66.504C196.962 67.32 196.53 67.632 194.97 67.848C191.826 68.28 189.546 68.664 189.546 72.072C189.546 73.992 190.794 75.312 193.482 75.312C195.066 75.312 196.314 74.76 197.058 73.944C197.082 74.304 197.154 74.712 197.25 75H200.154ZM209.018 70.728C208.898 72 207.938 72.696 206.714 72.696C205.49 72.696 204.41 71.448 204.41 68.88C204.41 66.312 205.49 65.472 206.81 65.472C207.986 65.472 208.874 66.192 209.042 67.416H212.186C211.994 64.632 209.906 62.88 206.834 62.88C203.522 62.88 201.314 64.728 201.314 68.952C201.314 73.176 203.522 75.312 206.738 75.312C209.594 75.312 211.826 73.464 212.162 70.728H209.018ZM223.837 75L219.973 67.536L223.933 63.192H220.117L216.229 67.68V58.872H213.085V75H216.229V71.256L217.741 69.696L220.333 75H223.837Z" fill="#3E85F3"/>
</g>
<defs>
<filter id="filter0_dd_57_225" x="-249.64" y="-249.464" width="828.573" height="727.016" filterUnits="userSpaceOnUse" color-interpolation-filters="sRGB">
<feFlood flood-opacity="0" result="BackgroundImageFix"/>
<feColorMatrix in="SourceAlpha" type="matrix" values="0 0 0 0 0 0 0 0 0 0 0 0 0 0 0 0 0 0 127 0" result="hardAlpha"/>
<feOffset dy="9.4"/>
<feGaussianBlur stdDeviation="28.8438"/>
<feColorMatrix type="matrix" values="0 0 0 0 0 0 0 0 0 0 0 0 0 0 0 0 0 0 0.035 0"/>
<feBlend mode="normal" in2="BackgroundImageFix" result="effect1_dropShadow_57_225"/>
<feColorMatrix in="SourceAlpha" type="matrix" values="0 0 0 0 0 0 0 0 0 0 0 0 0 0 0 0 0 0 127 0" result="hardAlpha"/>
<feOffset dy="47"/>
<feGaussianBlur stdDeviation="177.5"/>
<feColorMatrix type="matrix" values="0 0 0 0 0 0 0 0 0 0 0 0 0 0 0 0 0 0 0.07 0"/>
<feBlend mode="normal" in2="effect1_dropShadow_57_225" result="effect2_dropShadow_57_225"/>
<feBlend mode="normal" in="SourceGraphic" in2="effect2_dropShadow_57_225" result="shape"/>
</filter>
</defs>
</svg>
